<svg width="81" height="19" viewBox="0 0 81 19" fill="none" xmlns="http://www.w3.org/2000/svg">
<path d="M7.03125 12.2769H2.43055V9.37509H7.03125C7.74223 9.37509 8.32093 9.25935 8.76736 9.02787C9.21379 8.78812 9.54034 8.45743 9.74702 8.03581C9.9537 7.61418 10.057 7.13882 10.057 6.60972C10.057 6.07235 9.9537 5.57218 9.74702 5.10922C9.54034 4.64626 9.21379 4.27423 8.76736 3.99315C8.32093 3.71206 7.74223 3.57152 7.03125 3.57152H3.72024V18.7129H-3.12366e-06V0.657335H7.03125C8.44494 0.657335 9.65608 0.913618 10.6647 1.42618C11.6815 1.93048 12.4587 2.62906 12.996 3.52192C13.5334 4.41478 13.8021 5.43577 13.8021 6.58491C13.8021 7.75059 13.5334 8.75919 12.996 9.61071C12.4587 10.4622 11.6815 11.1195 10.6647 11.5824C9.65608 12.0454 8.44494 12.2769 7.03125 12.2769ZM22.1478 18.9609C21.1061 18.9609 20.172 18.7956 19.3452 18.4649C18.5185 18.1259 17.8158 17.6588 17.2371 17.0636C16.6667 16.4683 16.2285 15.778 15.9226 14.9927C15.6167 14.199 15.4638 13.3557 15.4638 12.4629V11.9669C15.4638 10.95 15.6085 10.0199 15.8978 9.17668C16.1872 8.33343 16.6005 7.60178 17.1379 6.98174C17.6835 6.3617 18.3449 5.88634 19.122 5.55565C19.8991 5.21669 20.7755 5.04722 21.751 5.04722C22.7017 5.04722 23.545 5.20429 24.2808 5.51845C25.0165 5.8326 25.6324 6.27903 26.1285 6.85773C26.6328 7.43644 27.0131 8.13088 27.2693 8.94107C27.5256 9.74298 27.6538 10.6358 27.6538 11.6196V13.1077H16.9891V10.7268H24.1443V10.454C24.1443 9.95793 24.0534 9.51564 23.8715 9.12708C23.6979 8.73025 23.4334 8.4161 23.0779 8.18462C22.7224 7.95314 22.2677 7.83739 21.7138 7.83739C21.2426 7.83739 20.8375 7.94073 20.4985 8.14741C20.1596 8.35409 19.8826 8.64345 19.6677 9.01547C19.461 9.38749 19.3039 9.82566 19.1964 10.33C19.0972 10.826 19.0476 11.3716 19.0476 11.9669V12.4629C19.0476 13.0003 19.122 13.4963 19.2708 13.951C19.4279 14.4057 19.647 14.7984 19.9281 15.1291C20.2174 15.4597 20.5646 15.716 20.9697 15.8979C21.3831 16.0798 21.8502 16.1707 22.371 16.1707C23.0159 16.1707 23.6152 16.0467 24.1691 15.7987C24.7313 15.5424 25.2149 15.158 25.62 14.6454L27.3561 16.5304C27.0751 16.9354 26.6906 17.324 26.2029 17.696C25.7234 18.068 25.1447 18.3739 24.4668 18.6137C23.7889 18.8452 23.0159 18.9609 22.1478 18.9609ZM33.1845 8.15982V18.7129H29.6131V5.29523H32.9613L33.1845 8.15982ZM32.6637 11.5328H31.6964C31.6964 10.5408 31.8246 9.64791 32.0808 8.85426C32.3371 8.05234 32.6968 7.3703 33.1597 6.80813C33.6227 6.23769 34.1724 5.80366 34.809 5.50605C35.4539 5.20016 36.1731 5.04722 36.9668 5.04722C37.5951 5.04722 38.1696 5.13815 38.6905 5.32003C39.2113 5.50191 39.6577 5.79126 40.0298 6.18809C40.41 6.58491 40.6994 7.10988 40.8978 7.76299C41.1045 8.4161 41.2078 9.21388 41.2078 10.1563V18.7129H37.6116V10.1439C37.6116 9.5487 37.5289 9.08574 37.3636 8.75505C37.1982 8.42437 36.9544 8.19288 36.6319 8.06061C36.3178 7.92007 35.9292 7.8498 35.4663 7.8498C34.9868 7.8498 34.5693 7.94487 34.2138 8.13501C33.8666 8.32516 33.5772 8.58971 33.3457 8.92866C33.1225 9.25935 32.953 9.64791 32.8373 10.0943C32.7216 10.5408 32.6637 11.0203 32.6637 11.5328ZM50.496 5.29523V7.82499H42.6835V5.29523H50.496ZM44.6181 1.98422H48.1895V14.6702C48.1895 15.0588 48.2391 15.3564 48.3383 15.5631C48.4458 15.7698 48.6028 15.9144 48.8095 15.9971C49.0162 16.0715 49.2766 16.1087 49.5908 16.1087C49.814 16.1087 50.0124 16.1005 50.186 16.0839C50.3679 16.0591 50.5208 16.0343 50.6448 16.0095L50.6572 18.6385C50.3514 18.7377 50.0207 18.8162 49.6652 18.8741C49.3097 18.932 48.917 18.9609 48.4871 18.9609C47.7017 18.9609 47.0155 18.8328 46.4286 18.5765C45.8499 18.3119 45.4034 17.8903 45.0893 17.3116C44.7751 16.7329 44.6181 15.9723 44.6181 15.0299V1.98422ZM60.0942 3.74513L55.1835 18.7129H51.2277L57.9365 0.657335H60.4539L60.0942 3.74513ZM64.1741 18.7129L59.251 3.74513L58.8542 0.657335H61.3963L68.1424 18.7129H64.1741ZM63.9509 11.9917V14.9058H54.4147V11.9917H63.9509ZM73.3631 5.29523V18.7129H69.7793V5.29523H73.3631ZM69.556 1.79821C69.556 1.27737 69.7379 0.84748 70.1017 0.508525C70.4654 0.16957 70.9532 9.2716e-05 71.565 9.2716e-05C72.1685 9.2716e-05 72.6521 0.16957 73.0159 0.508525C73.3879 0.84748 73.5739 1.27737 73.5739 1.79821C73.5739 2.31904 73.3879 2.74894 73.0159 3.08789C72.6521 3.42685 72.1685 3.59632 71.565 3.59632C70.9532 3.59632 70.4654 3.42685 70.1017 3.08789C69.7379 2.74894 69.556 2.31904 69.556 1.79821ZM76.4881 16.9892C76.4881 16.4601 76.67 16.0178 77.0337 15.6623C77.4057 15.3068 77.8976 15.1291 78.5094 15.1291C79.1212 15.1291 79.609 15.3068 79.9727 15.6623C80.3447 16.0178 80.5307 16.4601 80.5307 16.9892C80.5307 17.5183 80.3447 17.9606 79.9727 18.3161C79.609 18.6716 79.1212 18.8493 78.5094 18.8493C77.8976 18.8493 77.4057 18.6716 77.0337 18.3161C76.67 17.9606 76.4881 17.5183 76.4881 16.9892Z" fill="#ECEDEE"/>
</svg>
